# xmcd CD database file
#
# Track frame offsets:
#	150
#	21974
#	50560
#	75386
#	108671
#	135945
#	160060
#	182179
#	208005
#	230308
#	247982
#
# Disc length: 3586 seconds
#
# Revision: 0
# Processed by: cddbd v1.5PL3 Copyright (c) Steve Scherf et al.
# Submitted via: CDex 1.51
#
DISCID=870e000b
DTITLE=Shuji Atsuta Quintet - Ghost of a chance
DYEAR=1900
DGENRE=Jazz
TTITLE0=the midget
TTITLE1=my romance
TTITLE2=ghost of a chance
TTITLE3=cool struttin'
TTITLE4=out of the past
TTITLE5=portrait of Jennie
TTITLE6=blue minor
TTITLE7=along came Betty
TTITLE8=I remember Clifford
TTITLE9=vierd blues
TTITLE10=big "P"
EXTD=
EXTT0=
EXTT1=
EXTT2=
EXTT3=
EXTT4=
EXTT5=
EXTT6=
EXTT7=
EXTT8=
EXTT9=
EXTT10=
PLAYORDER=
